<svg width="48" height="48" viewBox="0 0 48 48" fill="none" xmlns="http://www.w3.org/2000/svg">
<path d="M36.1224 3.72199L36.5129 2.58103C36.5729 2.40578 36.4281 2.22844 36.2444 2.25214L35.0483 2.40641C31.318 2.88757 28.2691 5.52898 27.1921 9.03419C27.0299 9.56212 27.3263 10.1216 27.8542 10.2838C28.3822 10.446 28.9416 10.1496 29.1039 9.62163C29.7688 7.4576 31.3875 5.71078 33.4675 4.87064C33.6393 4.80126 33.8173 4.94536 33.8022 5.13C33.7835 5.36027 33.7739 5.59304 33.7739 5.82791C33.7739 10.5223 37.5795 14.3279 42.2739 14.3279C42.5091 14.3279 42.7421 14.3183 42.9726 14.2996C43.1572 14.2845 43.3014 14.4624 43.232 14.6342C42.9613 15.3046 42.5964 15.9271 42.1533 16.4856C41.81 16.9182 41.8824 17.5472 42.3151 17.8905C42.7477 18.2338 43.3767 18.1613 43.72 17.7287C44.7657 16.4107 45.4699 14.807 45.696 13.0533L45.8501 11.8572C45.8738 11.6735 45.6965 11.5288 45.5212 11.5888L44.3803 11.9793C43.721 12.205 43.0129 12.3279 42.2739 12.3279C38.6841 12.3279 35.7739 9.41776 35.7739 5.82791C35.7739 5.08914 35.8968 4.38115 36.1224 3.72199Z" fill="#2E3A59"/>
<path d="M30.0903 20.646C30.0442 20.2056 29.9709 19.7733 29.8722 19.3508C30.2864 19.2846 30.7124 19.25 31.1477 19.25C35.566 19.25 39.1477 22.8317 39.1477 27.25C39.1477 31.6683 35.566 35.25 31.1477 35.25C30.5954 35.25 30.1477 35.6977 30.1477 36.25C30.1477 36.8023 30.5954 37.25 31.1477 37.25C36.6706 37.25 41.1477 32.7729 41.1477 27.25C41.1477 21.7272 36.6706 17.25 31.1477 17.25C30.4893 17.25 29.8458 17.3136 29.223 17.4351C28.6017 16.0585 27.6923 14.8399 26.5716 13.8562C24.7289 12.2386 22.3151 11.256 19.6719 11.25L19.6477 11.25C13.8487 11.25 9.14771 15.951 9.14771 21.75C9.14771 21.9229 9.15188 22.0948 9.16014 22.2656C5.24525 22.5168 2.14771 25.7717 2.14771 29.75C2.14771 33.8921 5.50557 37.25 9.64771 37.25H10.1477C10.7 37.25 11.1477 36.8023 11.1477 36.25C11.1477 35.6977 10.7 35.25 10.1477 35.25H9.64771C6.61014 35.25 4.14771 32.7876 4.14771 29.75C4.14771 26.8333 6.41918 24.4456 9.28821 24.2615L11.2529 24.1354L11.1578 22.169C11.1511 22.0303 11.1477 21.8906 11.1477 21.75C11.1477 17.0556 14.9533 13.25 19.6477 13.25C20.0049 13.25 20.3571 13.272 20.7028 13.3148C24.6065 13.7982 27.6905 16.9289 28.1011 20.854C28.1586 21.4033 28.6505 21.802 29.1997 21.7446C29.749 21.6871 30.1477 21.1952 30.0903 20.646Z" fill="#2E3A59"/>
<path d="M19.6477 33.25C19.6477 32.6977 20.0954 32.25 20.6477 32.25C21.2 32.25 21.6477 32.6977 21.6477 33.25V35.25C21.6477 35.8023 21.2 36.25 20.6477 36.25C20.0954 36.25 19.6477 35.8023 19.6477 35.25V33.25Z" fill="#2E3A59"/>
<path d="M16.1477 35.25C15.5954 35.25 15.1477 35.6977 15.1477 36.25V38.25C15.1477 38.8023 15.5954 39.25 16.1477 39.25C16.7 39.25 17.1477 38.8023 17.1477 38.25V36.25C17.1477 35.6977 16.7 35.25 16.1477 35.25Z" fill="#2E3A59"/>
<path d="M16.1477 41.75C15.5954 41.75 15.1477 42.1977 15.1477 42.75V44.75C15.1477 45.3023 15.5954 45.75 16.1477 45.75C16.7 45.75 17.1477 45.3023 17.1477 44.75V42.75C17.1477 42.1977 16.7 41.75 16.1477 41.75Z" fill="#2E3A59"/>
<path d="M24.1477 36.25C24.1477 35.6977 24.5954 35.25 25.1477 35.25C25.7 35.25 26.1477 35.6977 26.1477 36.25V38.25C26.1477 38.8023 25.7 39.25 25.1477 39.25C24.5954 39.25 24.1477 38.8023 24.1477 38.25V36.25Z" fill="#2E3A59"/>
<path d="M25.1477 41.75C24.5954 41.75 24.1477 42.1977 24.1477 42.75V44.75C24.1477 45.3023 24.5954 45.75 25.1477 45.75C25.7 45.75 26.1477 45.3023 26.1477 44.75V42.75C26.1477 42.1977 25.7 41.75 25.1477 41.75Z" fill="#2E3A59"/>
<path d="M20.6477 38.75C20.0954 38.75 19.6477 39.1977 19.6477 39.75V41.75C19.6477 42.3023 20.0954 42.75 20.6477 42.75C21.2 42.75 21.6477 42.3023 21.6477 41.75V39.75C21.6477 39.1977 21.2 38.75 20.6477 38.75Z" fill="#2E3A59"/>
</svg>
