<svg width="48" height="48" viewBox="0 0 48 48" fill="none" xmlns="http://www.w3.org/2000/svg">
<path d="M26.25 9.5C28.7353 9.5 30.75 11.5147 30.75 14C30.75 16.4853 28.7353 18.5 26.25 18.5H9.25C8.69772 18.5 8.25 18.0523 8.25 17.5C8.25 16.9477 8.69772 16.5 9.25 16.5H26.25C27.6307 16.5 28.75 15.3807 28.75 14C28.75 12.6193 27.6307 11.5 26.25 11.5H22.75C22.1977 11.5 21.75 11.0523 21.75 10.5C21.75 9.94772 22.1977 9.5 22.75 9.5H26.25Z" fill="#2E3A59"/>
<path d="M39.25 16.5C41.7353 16.5 43.75 18.5147 43.75 21C43.75 23.4853 41.7353 25.5 39.25 25.5H5.25C4.69772 25.5 4.25 25.0523 4.25 24.5C4.25 23.9477 4.69772 23.5 5.25 23.5H39.25C40.6307 23.5 41.75 22.3807 41.75 21C41.75 19.6193 40.6307 18.5 39.25 18.5H35.75C35.1977 18.5 34.75 18.0523 34.75 17.5C34.75 16.9477 35.1977 16.5 35.75 16.5H39.25Z" fill="#2E3A59"/>
<path d="M30.25 38.5C32.7353 38.5 34.75 36.4853 34.75 34C34.75 31.5147 32.7353 29.5 30.25 29.5H13.25C12.6977 29.5 12.25 29.9477 12.25 30.5C12.25 31.0523 12.6977 31.5 13.25 31.5H30.25C31.6307 31.5 32.75 32.6193 32.75 34C32.75 35.3807 31.6307 36.5 30.25 36.5H26.75C26.1977 36.5 25.75 36.9477 25.75 37.5C25.75 38.0523 26.1977 38.5 26.75 38.5H30.25Z" fill="#2E3A59"/>
</svg>
