<svg width="48" height="48" viewBox="0 0 48 48" fill="none" xmlns="http://www.w3.org/2000/svg">
<path fill-rule="evenodd" clip-rule="evenodd" d="M26.4236 18.1062C24.581 16.4886 22.1672 15.506 19.5239 15.5C19.5159 15.5 19.5078 15.5 19.4998 15.5C13.7008 15.5 8.99976 20.201 8.99976 26C8.99976 26.1729 9.00393 26.3448 9.01219 26.5156C5.0973 26.7668 1.99976 30.0217 1.99976 34C1.99976 38.1421 5.35762 41.5 9.49976 41.5H30.9998C36.5226 41.5 40.9998 37.0228 40.9998 31.5C40.9998 25.9772 36.5226 21.5 30.9998 21.5C30.3414 21.5 29.6979 21.5636 29.075 21.6851C28.4537 20.3085 27.5443 19.0899 26.4236 18.1062ZM29.7242 23.6008C29.823 24.0233 29.8963 24.4556 29.9423 24.896C29.9998 25.4452 29.6011 25.9371 29.0518 25.9946C28.5025 26.052 28.0106 25.6533 27.9532 25.104C27.5426 21.1789 24.4586 18.0482 20.5549 17.5648C20.2091 17.522 19.857 17.5 19.4998 17.5C14.8053 17.5 10.9998 21.3056 10.9998 26C10.9998 26.1406 11.0032 26.2803 11.0099 26.419L11.1049 28.3854L9.14026 28.5115C6.27123 28.6956 3.99976 31.0833 3.99976 34C3.99976 37.0376 6.46219 39.5 9.49976 39.5H30.9998C35.418 39.5 38.9998 35.9183 38.9998 31.5C38.9998 27.0817 35.418 23.5 30.9998 23.5C30.5644 23.5 30.1385 23.5346 29.7242 23.6008Z" fill="#2E3A59"/>
<path d="M29.3297 13.7937C30.2719 10.7273 33.1273 8.5 36.5002 8.5C40.6423 8.5 44.0002 11.8579 44.0002 16C44.0002 17.7612 43.3944 19.3781 42.3791 20.6576C42.0358 21.0903 42.1082 21.7193 42.5409 22.0626C42.9735 22.4059 43.6025 22.3334 43.9458 21.9008C45.2316 20.2803 46.0002 18.2285 46.0002 16C46.0002 10.7533 41.7469 6.5 36.5002 6.5C32.2244 6.5 28.6108 9.32402 27.4179 13.2063C27.2557 13.7342 27.5522 14.2937 28.0801 14.4559C28.608 14.6181 29.1675 14.3216 29.3297 13.7937Z" fill="#2E3A59"/>
</svg>
