<svg width="48" height="48" viewBox="0 0 48 48" fill="none" xmlns="http://www.w3.org/2000/svg">
<path d="M32.4426 16.896C32.3965 16.4556 32.3232 16.0233 32.2245 15.6008C32.6387 15.5346 33.0647 15.5 33.5 15.5C37.9183 15.5 41.5 19.0817 41.5 23.5C41.5 27.9183 37.9183 31.5 33.5 31.5C32.9477 31.5 32.5 31.9477 32.5 32.5C32.5 33.0523 32.9477 33.5 33.5 33.5C39.0228 33.5 43.5 29.0228 43.5 23.5C43.5 17.9772 39.0228 13.5 33.5 13.5C32.8416 13.5 32.1981 13.5636 31.5753 13.6851C30.954 12.3085 30.0446 11.0899 28.9239 10.1062C27.0812 8.48861 24.6674 7.50599 22.0242 7.50003L22 7.5C16.201 7.5 11.5 12.201 11.5 18C11.5 18.1729 11.5042 18.3448 11.5124 18.5156C7.59754 18.7668 4.5 22.0217 4.5 26C4.5 30.1421 7.85786 33.5 12 33.5H12.5C13.0523 33.5 13.5 33.0523 13.5 32.5C13.5 31.9477 13.0523 31.5 12.5 31.5H12C8.96243 31.5 6.5 29.0376 6.5 26C6.5 23.0833 8.77148 20.6956 11.6405 20.5115L13.6052 20.3854L13.5101 18.419C13.5034 18.2803 13.5 18.1406 13.5 18C13.5 13.3056 17.3056 9.5 22 9.5C22.3572 9.5 22.7094 9.52204 23.0551 9.56484C26.9588 10.0482 30.0428 13.1789 30.4534 17.104C30.5109 17.6533 31.0028 18.052 31.552 17.9946C32.1013 17.9371 32.5 17.4452 32.4426 16.896Z" fill="#2E3A59"/>
<path d="M22.5 26.5C22.2239 26.5 22 26.7239 22 27V28C22 28.2761 22.2239 28.5 22.5 28.5H23.5C23.7761 28.5 24 28.2761 24 28V27C24 26.7239 23.7761 26.5 23.5 26.5H22.5Z" fill="#2E3A59"/>
<path d="M17.5 30C17.5 29.7239 17.7239 29.5 18 29.5H19C19.2761 29.5 19.5 29.7239 19.5 30V31C19.5 31.2761 19.2761 31.5 19 31.5H18C17.7239 31.5 17.5 31.2761 17.5 31V30Z" fill="#2E3A59"/>
<path d="M17.5 34.5C17.5 34.2239 17.7239 34 18 34H19C19.2761 34 19.5 34.2239 19.5 34.5V35.5C19.5 35.7761 19.2761 36 19 36H18C17.7239 36 17.5 35.7761 17.5 35.5V34.5Z" fill="#2E3A59"/>
<path d="M18 38.5C17.7239 38.5 17.5 38.7239 17.5 39V40C17.5 40.2761 17.7239 40.5 18 40.5H19C19.2761 40.5 19.5 40.2761 19.5 40V39C19.5 38.7239 19.2761 38.5 19 38.5H18Z" fill="#2E3A59"/>
<path d="M26.5 30C26.5 29.7239 26.7239 29.5 27 29.5H28C28.2761 29.5 28.5 29.7239 28.5 30V31C28.5 31.2761 28.2761 31.5 28 31.5H27C26.7239 31.5 26.5 31.2761 26.5 31V30Z" fill="#2E3A59"/>
<path d="M27 34C26.7239 34 26.5 34.2239 26.5 34.5V35.5C26.5 35.7761 26.7239 36 27 36H28C28.2761 36 28.5 35.7761 28.5 35.5V34.5C28.5 34.2239 28.2761 34 28 34H27Z" fill="#2E3A59"/>
<path d="M26.5 39C26.5 38.7239 26.7239 38.5 27 38.5H28C28.2761 38.5 28.5 38.7239 28.5 39V40C28.5 40.2761 28.2761 40.5 28 40.5H27C26.7239 40.5 26.5 40.2761 26.5 40V39Z" fill="#2E3A59"/>
<path d="M22 31.5C22 31.2239 22.2239 31 22.5 31H23.5C23.7761 31 24 31.2239 24 31.5V32.5C24 32.7761 23.7761 33 23.5 33H22.5C22.2239 33 22 32.7761 22 32.5V31.5Z" fill="#2E3A59"/>
<path d="M22.5 35.5C22.2239 35.5 22 35.7239 22 36V37C22 37.2761 22.2239 37.5 22.5 37.5H23.5C23.7761 37.5 24 37.2761 24 37V36C24 35.7239 23.7761 35.5 23.5 35.5H22.5Z" fill="#2E3A59"/>
</svg>
