<svg width="48" height="48" viewBox="0 0 48 48" fill="none" xmlns="http://www.w3.org/2000/svg">
<path d="M24 41C25.1046 41 26 40.1046 26 39C26 37.8954 25.1046 37 24 37C22.8954 37 22 37.8954 22 39C22 40.1046 22.8954 41 24 41Z" fill="#2E3A59"/>
<path fill-rule="evenodd" clip-rule="evenodd" d="M28 33.2547C29.8135 34.5196 31 36.6213 31 39C31 42.866 27.866 46 24 46C20.134 46 17 42.866 17 39C17 36.6213 18.1865 34.5196 20 33.2547V6C20 3.79086 21.7909 2 24 2C26.2091 2 28 3.79086 28 6V33.2547ZM26 10.6499V7.75H25C24.7239 7.75 24.5 7.52614 24.5 7.25V6.75C24.5 6.47386 24.7239 6.25 25 6.25H26V6C26 4.89543 25.1046 4 24 4C22.8954 4 22 4.89543 22 6V32H26V29.7495H25C24.7239 29.7495 24.5 29.5257 24.5 29.2495V28.7495C24.5 28.4734 24.7239 28.2495 25 28.2495H26V25.3496H25C24.7239 25.3496 24.5 25.1258 24.5 24.8496V24.3496C24.5 24.0735 24.7239 23.8496 25 23.8496H26V20.9497H25C24.7239 20.9497 24.5 20.7258 24.5 20.4497V19.9497C24.5 19.6736 24.7239 19.4497 25 19.4497H26V16.5498H25C24.7239 16.5498 24.5 16.3259 24.5 16.0498V15.5498C24.5 15.2737 24.7239 15.0498 25 15.0498H26V12.1499H25C24.7239 12.1499 24.5 11.926 24.5 11.6499V11.1499C24.5 10.8738 24.7239 10.6499 25 10.6499H26ZM19 39C19 36.2386 21.2386 34 24 34C26.7614 34 29 36.2386 29 39C29 41.7614 26.7614 44 24 44C21.2386 44 19 41.7614 19 39Z" fill="#2E3A59"/>
</svg>
