<svg width="48" height="48" viewBox="0 0 48 48" fill="none" xmlns="http://www.w3.org/2000/svg">
<path d="M32.4426 15.896C32.3965 15.4556 32.3232 15.0233 32.2245 14.6008C32.6387 14.5346 33.0647 14.5 33.5 14.5C37.9183 14.5 41.5 18.0817 41.5 22.5C41.5 26.9183 37.9183 30.5 33.5 30.5C32.9477 30.5 32.5 30.9477 32.5 31.5C32.5 32.0523 32.9477 32.5 33.5 32.5C39.0228 32.5 43.5 28.0228 43.5 22.5C43.5 16.9772 39.0228 12.5 33.5 12.5C32.8416 12.5 32.1981 12.5636 31.5753 12.6851C30.954 11.3085 30.0446 10.0899 28.9239 9.10616C27.0812 7.48861 24.6674 6.50599 22.0242 6.50003L22 6.5C16.201 6.5 11.5 11.201 11.5 17C11.5 17.1729 11.5042 17.3448 11.5124 17.5156C7.59754 17.7668 4.5 21.0217 4.5 25C4.5 29.1421 7.85786 32.5 12 32.5H12.5C13.0523 32.5 13.5 32.0523 13.5 31.5C13.5 30.9477 13.0523 30.5 12.5 30.5H12C8.96243 30.5 6.5 28.0376 6.5 25C6.5 22.0833 8.77148 19.6956 11.6405 19.5115L13.6052 19.3854L13.5101 17.419C13.5034 17.2803 13.5 17.1406 13.5 17C13.5 12.3056 17.3056 8.5 22 8.5C22.3572 8.5 22.7094 8.52204 23.0551 8.56484C26.9588 9.04824 30.0428 12.1789 30.4534 16.104C30.5109 16.6533 31.0028 17.052 31.552 16.9946C32.1013 16.9371 32.5 16.4452 32.4426 15.896Z" fill="#2E3A59"/>
<path d="M22 29.5C22 28.9477 22.4477 28.5 23 28.5C23.5523 28.5 24 28.9477 24 29.5V38.5C24 39.0523 23.5523 39.5 23 39.5C22.4477 39.5 22 39.0523 22 38.5V29.5Z" fill="#2E3A59"/>
<path d="M17.5 31.5C17.5 30.9477 17.9477 30.5 18.5 30.5C19.0523 30.5 19.5 30.9477 19.5 31.5V40.5C19.5 41.0523 19.0523 41.5 18.5 41.5C17.9477 41.5 17.5 41.0523 17.5 40.5V31.5Z" fill="#2E3A59"/>
<path d="M27.5 30.5C26.9477 30.5 26.5 30.9477 26.5 31.5V40.5C26.5 41.0523 26.9477 41.5 27.5 41.5C28.0523 41.5 28.5 41.0523 28.5 40.5V31.5C28.5 30.9477 28.0523 30.5 27.5 30.5Z" fill="#2E3A59"/>
</svg>
