<svg width="48" height="48" viewBox="0 0 48 48" fill="none" xmlns="http://www.w3.org/2000/svg">
<path d="M43.5 17C43.5 12.5817 39.9183 9 35.5 9H34.5C33.9477 9 33.5 9.44772 33.5 10C33.5 10.5523 33.9477 11 34.5 11H35.5C38.8137 11 41.5 13.6863 41.5 17C41.5 20.3137 38.8137 23 35.5 23H5C4.44772 23 4 23.4477 4 24C4 24.5523 4.44772 25 5 25H35.5C39.9183 25 43.5 21.4183 43.5 17Z" fill="#2E3A59"/>
<path d="M29.5 13.5C29.5 11.0147 27.4853 9 25 9H21.5C20.9477 9 20.5 9.44772 20.5 10C20.5 10.5523 20.9477 11 21.5 11H25C26.3807 11 27.5 12.1193 27.5 13.5C27.5 14.8807 26.3807 16 25 16H9C8.44772 16 8 16.4477 8 17C8 17.5523 8.44772 18 9 18H25C27.4853 18 29.5 15.9853 29.5 13.5Z" fill="#2E3A59"/>
<path d="M30 38C32.4853 38 34.5 35.9853 34.5 33.5C34.5 31.0147 32.4853 29 30 29H14C13.4477 29 13 29.4477 13 30C13 30.5523 13.4477 31 14 31H30C31.3807 31 32.5 32.1193 32.5 33.5C32.5 34.8807 31.3807 36 30 36H26.5C25.9477 36 25.5 36.4477 25.5 37C25.5 37.5523 25.9477 38 26.5 38H30Z" fill="#2E3A59"/>
</svg>
