<svg width="48" height="48" viewBox="0 0 48 48" fill="none" xmlns="http://www.w3.org/2000/svg">
<path d="M32.4426 16.146C32.3965 15.7056 32.3232 15.2733 32.2245 14.8508C32.6387 14.7846 33.0647 14.75 33.5 14.75C37.9183 14.75 41.5 18.3317 41.5 22.75C41.5 27.1683 37.9183 30.75 33.5 30.75C32.9477 30.75 32.5 31.1977 32.5 31.75C32.5 32.3023 32.9477 32.75 33.5 32.75C39.0228 32.75 43.5 28.2728 43.5 22.75C43.5 17.2272 39.0228 12.75 33.5 12.75C32.8416 12.75 32.1981 12.8136 31.5753 12.9351C30.954 11.5585 30.0446 10.3399 28.9239 9.35616C27.0812 7.73861 24.6674 6.75599 22.0242 6.75003L22 6.75C16.201 6.75 11.5 11.451 11.5 17.25C11.5 17.4229 11.5042 17.5948 11.5124 17.7656C7.59754 18.0168 4.5 21.2717 4.5 25.25C4.5 29.3921 7.85786 32.75 12 32.75H12.5C13.0523 32.75 13.5 32.3023 13.5 31.75C13.5 31.1977 13.0523 30.75 12.5 30.75H12C8.96243 30.75 6.5 28.2876 6.5 25.25C6.5 22.3333 8.77148 19.9456 11.6405 19.7615L13.6052 19.6354L13.5101 17.669C13.5034 17.5303 13.5 17.3906 13.5 17.25C13.5 12.5556 17.3056 8.75 22 8.75C22.3572 8.75 22.7094 8.77204 23.0551 8.81484C26.9588 9.29824 30.0428 12.4289 30.4534 16.354C30.5109 16.9033 31.0028 17.302 31.552 17.2446C32.1013 17.1871 32.5 16.6952 32.4426 16.146Z" fill="#2E3A59"/>
<path d="M22 28.75C22 28.1977 22.4477 27.75 23 27.75C23.5523 27.75 24 28.1977 24 28.75V30.75C24 31.3023 23.5523 31.75 23 31.75C22.4477 31.75 22 31.3023 22 30.75V28.75Z" fill="#2E3A59"/>
<path d="M18.5 30.75C17.9477 30.75 17.5 31.1977 17.5 31.75V33.75C17.5 34.3023 17.9477 34.75 18.5 34.75C19.0523 34.75 19.5 34.3023 19.5 33.75V31.75C19.5 31.1977 19.0523 30.75 18.5 30.75Z" fill="#2E3A59"/>
<path d="M18.5 37.25C17.9477 37.25 17.5 37.6977 17.5 38.25V40.25C17.5 40.8023 17.9477 41.25 18.5 41.25C19.0523 41.25 19.5 40.8023 19.5 40.25V38.25C19.5 37.6977 19.0523 37.25 18.5 37.25Z" fill="#2E3A59"/>
<path d="M26.5 31.75C26.5 31.1977 26.9477 30.75 27.5 30.75C28.0523 30.75 28.5 31.1977 28.5 31.75V33.75C28.5 34.3023 28.0523 34.75 27.5 34.75C26.9477 34.75 26.5 34.3023 26.5 33.75V31.75Z" fill="#2E3A59"/>
<path d="M27.5 37.25C26.9477 37.25 26.5 37.6977 26.5 38.25V40.25C26.5 40.8023 26.9477 41.25 27.5 41.25C28.0523 41.25 28.5 40.8023 28.5 40.25V38.25C28.5 37.6977 28.0523 37.25 27.5 37.25Z" fill="#2E3A59"/>
<path d="M23 34.25C22.4477 34.25 22 34.6977 22 35.25V37.25C22 37.8023 22.4477 38.25 23 38.25C23.5523 38.25 24 37.8023 24 37.25V35.25C24 34.6977 23.5523 34.25 23 34.25Z" fill="#2E3A59"/>
</svg>
