<svg width="48" height="48" viewBox="0 0 48 48" fill="none" xmlns="http://www.w3.org/2000/svg">
<path d="M37.2899 3.47199L37.6804 2.33103C37.7403 2.15578 37.5956 1.97844 37.4118 2.00214L36.2158 2.15641C32.4855 2.63757 29.4366 5.27898 28.3596 8.78419C28.1973 9.31212 28.4938 9.87159 29.0217 10.0338C29.5497 10.196 30.1091 9.89956 30.2713 9.37163C30.9363 7.2076 32.555 5.46078 34.635 4.62064C34.8068 4.55126 34.9848 4.69536 34.9697 4.88C34.951 5.11027 34.9414 5.34304 34.9414 5.57791C34.9414 10.2723 38.747 14.0779 43.4414 14.0779C43.6766 14.0779 43.9096 14.0683 44.1401 14.0496C44.3247 14.0345 44.4688 14.2124 44.3995 14.3842C44.1288 15.0546 43.7638 15.6771 43.3207 16.2356C42.9775 16.6682 43.0499 17.2972 43.4825 17.6405C43.9152 17.9838 44.5442 17.9113 44.8875 17.4787C45.9332 16.1607 46.6374 14.557 46.8634 12.8033L47.0176 11.6072C47.0413 11.4235 46.864 11.2788 46.6887 11.3388L45.5478 11.7293C44.8885 11.955 44.1804 12.0779 43.4414 12.0779C39.8516 12.0779 36.9414 9.16776 36.9414 5.57791C36.9414 4.83914 37.0643 4.13115 37.2899 3.47199Z" fill="#2E3A59"/>
<path d="M15.9802 46C18.4655 46 20.4802 43.9853 20.4802 41.5C20.4802 39.0147 18.4655 37 15.9802 37H5.98022C5.42794 37 4.98022 37.4477 4.98022 38C4.98022 38.5523 5.42794 39 5.98022 39H15.9802C17.3609 39 18.4802 40.1193 18.4802 41.5C18.4802 42.8807 17.3609 44 15.9802 44H13.4802C12.9279 44 12.4802 44.4477 12.4802 45C12.4802 45.5523 12.9279 46 13.4802 46H15.9802Z" fill="#2E3A59"/>
<path d="M21.4802 36V34H33.9558C38.0204 34 41.4797 30.5113 41.4797 26C41.4797 21.4887 38.0204 18 33.9558 18C33.5568 18 33.1662 18.0329 32.786 18.0959C32.8817 18.5219 32.9524 18.9575 32.9966 19.4009C33.0514 19.9504 32.6502 20.4403 32.1007 20.4951C31.5511 20.5498 31.0612 20.1487 31.0065 19.5991C30.9435 18.9673 30.8155 18.3575 30.63 17.7767L30.2853 16.9749C29.0043 13.9947 26.1912 12 23.0033 12C18.6758 12 15.0032 15.7125 15.0032 20.5C15.0032 20.6422 15.0065 20.7834 15.013 20.9236L15.103 22.8795L13.3137 23H13.1491L13.1508 23.0112C11.898 23.0956 10.7364 23.6744 9.86826 24.5869C9.63118 24.8361 9.31174 25.0002 8.9678 25.0002C8.13911 25.0002 7.62004 24.129 8.15781 23.4985C8.30592 23.3249 8.46163 23.1585 8.62439 23H8.6228C9.79129 21.862 11.323 21.1295 13.0151 21.0156C13.0121 20.9504 13.0096 20.8851 13.0078 20.8196C12.974 20.7192 12.9556 20.6118 12.9556 20.5C12.9556 14.7475 17.4087 10 23.0033 10C27.1028 10 30.5913 12.5514 32.1616 16.1772C32.7427 16.0609 33.3425 16 33.9558 16C39.2158 16 43.4797 20.4772 43.4797 26C43.4797 31.5228 39.2158 36 33.9558 36H21.4802Z" fill="#2E3A59"/>
<path d="M22.4802 23C24.6894 23 26.4802 24.7909 26.4802 27V27.5C26.4802 29.9853 24.4655 32 21.9802 32H1.98022C1.42794 32 0.980225 31.5523 0.980225 31C0.980225 30.4477 1.42794 30 1.98022 30H21.9802C23.3609 30 24.4802 28.8807 24.4802 27.5V27C24.4802 25.8954 23.5848 25 22.4802 25C21.9279 25 21.4802 24.5523 21.4802 24C21.4802 23.4477 21.9279 23 22.4802 23Z" fill="#2E3A59"/>
</svg>
