<svg width="48" height="48" viewBox="0 0 48 48" fill="none" xmlns="http://www.w3.org/2000/svg">
<path fill-rule="evenodd" clip-rule="evenodd" d="M36.5 22C39.17 22 41.6072 21.0035 43.4599 19.362L43.4854 19.3394C43.6348 19.2062 43.7804 19.0687 43.922 18.9272C44.0953 18.7541 44.2626 18.5748 44.4235 18.3899C44.6959 18.077 45.223 18.169 45.3251 18.5711C45.3888 18.8223 45.4482 19.0751 45.5033 19.3296C45.5489 19.5406 45.5915 19.7528 45.631 19.966L45.6418 20.0251C45.8771 21.3144 46 22.6428 46 24C46 36.1503 36.1503 46 24 46C11.8497 46 2 36.1503 2 24C2 11.8497 11.8497 2 24 2C25.3572 2 26.6856 2.12289 27.9749 2.35816L28.034 2.36903C28.2472 2.40855 28.4594 2.45113 28.6704 2.49674C28.9249 2.55176 29.1777 2.61118 29.4289 2.67491C29.831 2.77697 29.923 3.30412 29.6101 3.57648C29.4252 3.73741 29.2459 3.90469 29.0728 4.078C28.9313 4.21957 28.7938 4.36516 28.6606 4.51458L28.638 4.54006C26.9965 6.39284 26 8.83004 26 11.5C26 17.299 30.701 22 36.5 22ZM36.5 24C39.2506 24 41.7947 23.1102 43.8583 21.6054C43.9518 22.39 44 23.1891 44 24C44 35.0457 35.0457 44 24 44C12.9543 44 4 35.0457 4 24C4 12.9543 12.9543 4 24 4C24.8109 4 25.61 4.04816 26.3946 4.14167C24.8898 6.20531 24 8.74937 24 11.5C24 18.4036 29.5964 24 36.5 24Z" fill="#2E3A59"/>
</svg>
