<svg width="48" height="48" viewBox="0 0 48 48" fill="none" xmlns="http://www.w3.org/2000/svg">
<path d="M30.0797 9.29372C31.0219 6.22731 33.8773 4 37.2502 4C41.3923 4 44.7502 7.35786 44.7502 11.5C44.7502 13.2612 44.1444 14.8781 43.1291 16.1576C42.7858 16.5903 42.8582 17.2193 43.2909 17.5626C43.7235 17.9059 44.3525 17.8334 44.6958 17.4008C45.9816 15.7803 46.7502 13.7285 46.7502 11.5C46.7502 6.25329 42.4969 2 37.2502 2C32.9744 2 29.3608 4.82402 28.1679 8.70628C28.0057 9.2342 28.3022 9.79367 28.8301 9.95589C29.358 10.1181 29.9175 9.82164 30.0797 9.29372Z" fill="#2E3A59"/>
<path d="M16.2498 46C18.735 46 20.7498 43.9853 20.7498 41.5C20.7498 39.0147 18.735 37 16.2498 37H6.24976C5.69747 37 5.24976 37.4477 5.24976 38C5.24976 38.5523 5.69747 39 6.24976 39H16.2498C17.6305 39 18.7498 40.1193 18.7498 41.5C18.7498 42.8807 17.6305 44 16.2498 44H13.7498C13.1975 44 12.7498 44.4477 12.7498 45C12.7498 45.5523 13.1975 46 13.7498 46H16.2498Z" fill="#2E3A59"/>
<path d="M21.7498 36V34H34.2254C38.2899 34 41.7493 30.5113 41.7493 26C41.7493 21.4887 38.2899 18 34.2254 18C33.8263 18 33.4358 18.0329 33.0555 18.0959C33.1512 18.5219 33.222 18.9575 33.2661 19.4009C33.3209 19.9504 32.9198 20.4403 32.3702 20.4951C31.8206 20.5498 31.3307 20.1487 31.276 19.5991C31.213 18.9673 31.0851 18.3575 30.8995 17.7767L30.5548 16.9749C29.2738 13.9947 26.4607 12 23.2729 12C18.9454 12 15.2728 15.7125 15.2728 20.5C15.2728 20.6422 15.276 20.7834 15.2825 20.9236L15.3726 22.8795L13.5832 23H13.4186L13.4204 23.0112C12.1675 23.0956 11.0059 23.6744 10.1378 24.5869C9.90072 24.8361 9.58128 25.0002 9.23733 25.0002C8.40864 25.0002 7.88957 24.129 8.42734 23.4985C8.57546 23.3249 8.73117 23.1585 8.89392 23H8.89233C10.0608 21.862 11.5926 21.1295 13.2846 21.0156C13.2816 20.9504 13.2792 20.8851 13.2773 20.8196C13.2435 20.7192 13.2252 20.6118 13.2252 20.5C13.2252 14.7475 17.6783 10 23.2729 10C27.3723 10 30.8608 12.5514 32.4311 16.1772C33.0122 16.0609 33.612 16 34.2254 16C39.4853 16 43.7493 20.4772 43.7493 26C43.7493 31.5228 39.4853 36 34.2254 36H21.7498Z" fill="#2E3A59"/>
<path d="M22.7498 23C24.9589 23 26.7498 24.7909 26.7498 27V27.5C26.7498 29.9853 24.735 32 22.2498 32H2.24976C1.69747 32 1.24976 31.5523 1.24976 31C1.24976 30.4477 1.69747 30 2.24976 30H22.2498C23.6305 30 24.7498 28.8807 24.7498 27.5V27C24.7498 25.8954 23.8543 25 22.7498 25C22.1975 25 21.7498 24.5523 21.7498 24C21.7498 23.4477 22.1975 23 22.7498 23Z" fill="#2E3A59"/>
</svg>
