<svg width="48" height="48" viewBox="0 0 48 48" fill="none" xmlns="http://www.w3.org/2000/svg">
<path d="M29.3297 9.54372C30.2719 6.47731 33.1273 4.25 36.5002 4.25C40.6423 4.25 44.0002 7.60786 44.0002 11.75C44.0002 13.5112 43.3944 15.1281 42.3791 16.4076C42.0358 16.8403 42.1082 17.4693 42.5409 17.8126C42.9735 18.1559 43.6025 18.0834 43.9458 17.6508C45.2316 16.0303 46.0002 13.9785 46.0002 11.75C46.0002 6.50329 41.7469 2.25 36.5002 2.25C32.2244 2.25 28.6108 5.07402 27.4179 8.95628C27.2557 9.4842 27.5522 10.0437 28.0801 10.2059C28.608 10.3681 29.1675 10.0716 29.3297 9.54372Z" fill="#2E3A59"/>
<path d="M29.9423 20.646C29.8963 20.2056 29.823 19.7733 29.7242 19.3508C30.1385 19.2846 30.5644 19.25 30.9998 19.25C35.418 19.25 38.9998 22.8317 38.9998 27.25C38.9998 31.6683 35.418 35.25 30.9998 35.25C30.4475 35.25 29.9998 35.6977 29.9998 36.25C29.9998 36.8023 30.4475 37.25 30.9998 37.25C36.5226 37.25 40.9998 32.7729 40.9998 27.25C40.9998 21.7272 36.5226 17.25 30.9998 17.25C30.3414 17.25 29.6979 17.3136 29.075 17.4351C28.4537 16.0585 27.5443 14.8399 26.4236 13.8562C24.581 12.2386 22.1672 11.256 19.5239 11.25L19.4998 11.25C13.7008 11.25 8.99976 15.951 8.99976 21.75C8.99976 21.9229 9.00393 22.0948 9.01219 22.2656C5.0973 22.5168 1.99976 25.7717 1.99976 29.75C1.99976 33.8921 5.35762 37.25 9.49976 37.25H9.99976C10.552 37.25 10.9998 36.8023 10.9998 36.25C10.9998 35.6977 10.552 35.25 9.99976 35.25H9.49976C6.46219 35.25 3.99976 32.7876 3.99976 29.75C3.99976 26.8333 6.27123 24.4456 9.14026 24.2615L11.1049 24.1354L11.0099 22.169C11.0032 22.0303 10.9998 21.8906 10.9998 21.75C10.9998 17.0556 14.8053 13.25 19.4998 13.25C19.857 13.25 20.2091 13.272 20.5549 13.3148C24.4586 13.7982 27.5426 16.9289 27.9532 20.854C28.0106 21.4033 28.5025 21.802 29.0518 21.7446C29.6011 21.6871 29.9998 21.1952 29.9423 20.646Z" fill="#2E3A59"/>
<path d="M19.4998 33.25C19.4998 32.6977 19.9475 32.25 20.4998 32.25C21.052 32.25 21.4998 32.6977 21.4998 33.25V35.25C21.4998 35.8023 21.052 36.25 20.4998 36.25C19.9475 36.25 19.4998 35.8023 19.4998 35.25V33.25Z" fill="#2E3A59"/>
<path d="M15.9998 35.25C15.4475 35.25 14.9998 35.6977 14.9998 36.25V38.25C14.9998 38.8023 15.4475 39.25 15.9998 39.25C16.552 39.25 16.9998 38.8023 16.9998 38.25V36.25C16.9998 35.6977 16.552 35.25 15.9998 35.25Z" fill="#2E3A59"/>
<path d="M15.9998 41.75C15.4475 41.75 14.9998 42.1977 14.9998 42.75V44.75C14.9998 45.3023 15.4475 45.75 15.9998 45.75C16.552 45.75 16.9998 45.3023 16.9998 44.75V42.75C16.9998 42.1977 16.552 41.75 15.9998 41.75Z" fill="#2E3A59"/>
<path d="M23.9998 36.25C23.9998 35.6977 24.4475 35.25 24.9998 35.25C25.552 35.25 25.9998 35.6977 25.9998 36.25V38.25C25.9998 38.8023 25.552 39.25 24.9998 39.25C24.4475 39.25 23.9998 38.8023 23.9998 38.25V36.25Z" fill="#2E3A59"/>
<path d="M24.9998 41.75C24.4475 41.75 23.9998 42.1977 23.9998 42.75V44.75C23.9998 45.3023 24.4475 45.75 24.9998 45.75C25.552 45.75 25.9998 45.3023 25.9998 44.75V42.75C25.9998 42.1977 25.552 41.75 24.9998 41.75Z" fill="#2E3A59"/>
<path d="M20.4998 38.75C19.9475 38.75 19.4998 39.1977 19.4998 39.75V41.75C19.4998 42.3023 19.9475 42.75 20.4998 42.75C21.052 42.75 21.4998 42.3023 21.4998 41.75V39.75C21.4998 39.1977 21.052 38.75 20.4998 38.75Z" fill="#2E3A59"/>
</svg>
