<svg width="48" height="48" viewBox="0 0 48 48" fill="none" xmlns="http://www.w3.org/2000/svg">
<path fill-rule="evenodd" clip-rule="evenodd" d="M28.9239 13.6062C27.0812 11.9886 24.6674 11.006 22.0242 11C22.0161 11 22.0081 11 22 11C16.201 11 11.5 15.701 11.5 21.5C11.5 21.6729 11.5042 21.8448 11.5124 22.0156C7.59754 22.2668 4.5 25.5217 4.5 29.5C4.5 33.6421 7.85786 37 12 37H33.5C39.0228 37 43.5 32.5228 43.5 27C43.5 21.4772 39.0228 17 33.5 17C32.8416 17 32.1981 17.0636 31.5753 17.1851C30.954 15.8085 30.0446 14.5899 28.9239 13.6062ZM32.2245 19.1008C32.3232 19.5233 32.3965 19.9556 32.4426 20.396C32.5 20.9452 32.1013 21.4371 31.552 21.4946C31.0028 21.552 30.5109 21.1533 30.4534 20.604C30.0428 16.6789 26.9588 13.5482 23.0551 13.0648C22.7094 13.022 22.3572 13 22 13C17.3056 13 13.5 16.8056 13.5 21.5C13.5 21.6406 13.5034 21.7803 13.5101 21.919L13.6052 23.8854L11.6405 24.0115C8.77148 24.1956 6.5 26.5833 6.5 29.5C6.5 32.5376 8.96243 35 12 35H33.5C37.9183 35 41.5 31.4183 41.5 27C41.5 22.5817 37.9183 19 33.5 19C33.0647 19 32.6387 19.0346 32.2245 19.1008Z" fill="#2E3A59"/>
</svg>
