<svg width="48" height="48" viewBox="0 0 48 48" fill="none" xmlns="http://www.w3.org/2000/svg">
<path d="M32.4426 16.896C32.3965 16.4556 32.3232 16.0233 32.2245 15.6008C32.6387 15.5346 33.0647 15.5 33.5 15.5C37.9183 15.5 41.5 19.0817 41.5 23.5C41.5 27.9183 37.9183 31.5 33.5 31.5C32.9477 31.5 32.5 31.9477 32.5 32.5C32.5 33.0523 32.9477 33.5 33.5 33.5C39.0228 33.5 43.5 29.0228 43.5 23.5C43.5 17.9772 39.0228 13.5 33.5 13.5C32.8416 13.5 32.1981 13.5636 31.5753 13.6851C30.954 12.3085 30.0446 11.0899 28.9239 10.1062C27.0812 8.48861 24.6674 7.50599 22.0242 7.50003L22 7.5C16.201 7.5 11.5 12.201 11.5 18C11.5 18.1729 11.5042 18.3448 11.5124 18.5156C7.59754 18.7668 4.5 22.0217 4.5 26C4.5 30.1421 7.85786 33.5 12 33.5H12.5C13.0523 33.5 13.5 33.0523 13.5 32.5C13.5 31.9477 13.0523 31.5 12.5 31.5H12C8.96243 31.5 6.5 29.0376 6.5 26C6.5 23.0833 8.77148 20.6956 11.6405 20.5115L13.6052 20.3854L13.5101 18.419C13.5034 18.2803 13.5 18.1406 13.5 18C13.5 13.3056 17.3056 9.5 22 9.5C22.3572 9.5 22.7094 9.52204 23.0551 9.56484C26.9588 10.0482 30.0428 13.1789 30.4534 17.104C30.5109 17.6533 31.0028 18.052 31.552 17.9946C32.1013 17.9371 32.5 17.4452 32.4426 16.896Z" fill="#2E3A59"/>
<path d="M27 30C26.7239 30 26.5 30.2239 26.5 30.5V32H25C24.7239 32 24.5 32.2239 24.5 32.5V33.5C24.5 33.7761 24.7239 34 25 34H26.5V35.5C26.5 35.7761 26.7239 36 27 36H28C28.2761 36 28.5 35.7761 28.5 35.5V34H30C30.2761 34 30.5 33.7761 30.5 33.5V32.5C30.5 32.2239 30.2761 32 30 32H28.5V30.5C28.5 30.2239 28.2761 30 28 30H27Z" fill="#2E3A59"/>
<path d="M20 34.5C19.7239 34.5 19.5 34.7239 19.5 35V36.5H18C17.7239 36.5 17.5 36.7239 17.5 37V38C17.5 38.2761 17.7239 38.5 18 38.5H19.5V40C19.5 40.2761 19.7239 40.5 20 40.5H21C21.2761 40.5 21.5 40.2761 21.5 40V38.5H23C23.2761 38.5 23.5 38.2761 23.5 38V37C23.5 36.7239 23.2761 36.5 23 36.5H21.5V35C21.5 34.7239 21.2761 34.5 21 34.5H20Z" fill="#2E3A59"/>
<path d="M18 25.5C17.7239 25.5 17.5 25.7239 17.5 26V27.5H16C15.7239 27.5 15.5 27.7239 15.5 28V29C15.5 29.2761 15.7239 29.5 16 29.5H17.5V31C17.5 31.2761 17.7239 31.5 18 31.5H19C19.2761 31.5 19.5 31.2761 19.5 31V29.5H21C21.2761 29.5 21.5 29.2761 21.5 29V28C21.5 27.7239 21.2761 27.5 21 27.5H19.5V26C19.5 25.7239 19.2761 25.5 19 25.5H18Z" fill="#2E3A59"/>
</svg>
