<svg width="48" height="48" viewBox="0 0 48 48" fill="none" xmlns="http://www.w3.org/2000/svg">
<path d="M17.7502 42C20.2355 42 22.2502 39.9853 22.2502 37.5C22.2502 35.0147 20.2355 33 17.7502 33H7.75024C7.19796 33 6.75024 33.4477 6.75024 34C6.75024 34.5523 7.19796 35 7.75024 35H17.7502C19.131 35 20.2502 36.1193 20.2502 37.5C20.2502 38.8807 19.131 40 17.7502 40H15.2502C14.698 40 14.2502 40.4477 14.2502 41C14.2502 41.5523 14.698 42 15.2502 42H17.7502Z" fill="#2E3A59"/>
<path d="M23.2502 32V30H35.7259C39.7904 30 43.2498 26.5113 43.2498 22C43.2498 17.4887 39.7904 14 35.7259 14C35.3268 14 34.9363 14.0329 34.556 14.0959C34.6517 14.5219 34.7225 14.9575 34.7666 15.4009C34.8214 15.9504 34.4203 16.4403 33.8707 16.4951C33.3211 16.5498 32.8312 16.1487 32.7765 15.5991C32.7135 14.9673 32.5855 14.3575 32.4 13.7767L32.0553 12.9749C30.7743 9.99468 27.9612 8 24.7734 8C20.4458 8 16.7733 11.7125 16.7733 16.5C16.7733 16.6422 16.7765 16.7834 16.783 16.9236L16.8731 18.8795L15.0837 19H14.9191L14.9209 19.0112C13.668 19.0956 12.5064 19.6744 11.6383 20.5869C11.4012 20.8361 11.0818 21.0002 10.7378 21.0002C9.90913 21.0002 9.39006 20.129 9.92783 19.4985C10.0759 19.3249 10.2317 19.1585 10.3944 19H10.3928C11.5613 17.862 13.0931 17.1295 14.7851 17.0156C14.7821 16.9504 14.7797 16.8851 14.7778 16.8196C14.744 16.7192 14.7256 16.6118 14.7256 16.5C14.7256 10.7475 19.1788 6 24.7734 6C28.8728 6 32.3613 8.55143 33.9316 12.1772C34.5127 12.0609 35.1125 12 35.7259 12C40.9858 12 45.2498 16.4772 45.2498 22C45.2498 27.5228 40.9858 32 35.7259 32H23.2502Z" fill="#2E3A59"/>
<path d="M24.2502 19C26.4594 19 28.2502 20.7909 28.2502 23V23.5C28.2502 25.9853 26.2355 28 23.7502 28H3.75024C3.19796 28 2.75024 27.5523 2.75024 27C2.75024 26.4477 3.19796 26 3.75024 26H23.7502C25.131 26 26.2502 24.8807 26.2502 23.5V23C26.2502 21.8954 25.3548 21 24.2502 21C23.698 21 23.2502 20.5523 23.2502 20C23.2502 19.4477 23.698 19 24.2502 19Z" fill="#2E3A59"/>
</svg>
