<svg width="48" height="48" viewBox="0 0 48 48" fill="none" xmlns="http://www.w3.org/2000/svg">
<path d="M32.4426 15.646C32.3965 15.2056 32.3232 14.7733 32.2245 14.3508C32.6387 14.2846 33.0647 14.25 33.5 14.25C37.9183 14.25 41.5 17.8317 41.5 22.25C41.5 26.6683 37.9183 30.25 33.5 30.25C32.9477 30.25 32.5 30.6977 32.5 31.25C32.5 31.8023 32.9477 32.25 33.5 32.25C39.0228 32.25 43.5 27.7728 43.5 22.25C43.5 16.7272 39.0228 12.25 33.5 12.25C32.8416 12.25 32.1981 12.3136 31.5753 12.4351C30.954 11.0585 30.0446 9.83991 28.9239 8.85616C27.0812 7.23861 24.6674 6.25599 22.0242 6.25003L22 6.25C16.201 6.25 11.5 10.951 11.5 16.75C11.5 16.9229 11.5042 17.0948 11.5124 17.2656C7.59754 17.5168 4.5 20.7717 4.5 24.75C4.5 28.8921 7.85786 32.25 12 32.25H12.5C13.0523 32.25 13.5 31.8023 13.5 31.25C13.5 30.6977 13.0523 30.25 12.5 30.25H12C8.96243 30.25 6.5 27.7876 6.5 24.75C6.5 21.8333 8.77148 19.4456 11.6405 19.2615L13.6052 19.1354L13.5101 17.169C13.5034 17.0303 13.5 16.8906 13.5 16.75C13.5 12.0556 17.3056 8.25 22 8.25C22.3572 8.25 22.7094 8.27204 23.0551 8.31484C26.9588 8.79824 30.0428 11.9289 30.4534 15.854C30.5109 16.4033 31.0028 16.802 31.552 16.7446C32.1013 16.6871 32.5 16.1952 32.4426 15.646Z" fill="#2E3A59"/>
<path d="M23.9635 23.0174C24.1113 22.4853 23.7998 21.9341 23.2677 21.7862C22.7355 21.6384 22.1843 21.95 22.0365 22.4821L19.5365 31.4821C19.4529 31.7832 19.5148 32.1061 19.7039 32.3549C19.893 32.6037 20.1875 32.7498 20.5 32.7498H26.1844L24.0365 40.4821C23.8887 41.0143 24.2002 41.5655 24.7324 41.7133C25.2645 41.8611 25.8157 41.5495 25.9635 41.0174L28.4635 32.0174C28.5472 31.7163 28.4852 31.3934 28.2961 31.1446C28.107 30.8958 27.8125 30.7498 27.5 30.7498H21.8156L23.9635 23.0174Z" fill="#2E3A59"/>
</svg>
