<svg width="48" height="48" viewBox="0 0 48 48" fill="none" xmlns="http://www.w3.org/2000/svg">
<path d="M36.1224 3.22199L36.5129 2.08103C36.5729 1.90578 36.4281 1.72844 36.2444 1.75214L35.0483 1.90641C31.318 2.38757 28.2691 5.02898 27.1921 8.53419C27.0299 9.06212 27.3263 9.62159 27.8542 9.7838C28.3822 9.94602 28.9416 9.64956 29.1039 9.12163C29.7688 6.9576 31.3875 5.21078 33.4675 4.37064C33.6393 4.30126 33.8173 4.44536 33.8022 4.63C33.7835 4.86027 33.7739 5.09304 33.7739 5.32791C33.7739 10.0223 37.5795 13.8279 42.2739 13.8279C42.5091 13.8279 42.7421 13.8183 42.9726 13.7996C43.1572 13.7845 43.3014 13.9624 43.232 14.1342C42.9613 14.8046 42.5964 15.4271 42.1533 15.9856C41.81 16.4182 41.8824 17.0472 42.3151 17.3905C42.7477 17.7338 43.3767 17.6613 43.72 17.2287C44.7657 15.9107 45.4699 14.307 45.696 12.5533L45.8501 11.3572C45.8738 11.1735 45.6965 11.0288 45.5212 11.0888L44.3803 11.4793C43.721 11.705 43.0129 11.8279 42.2739 11.8279C38.6841 11.8279 35.7739 8.91776 35.7739 5.32791C35.7739 4.58914 35.8968 3.88115 36.1224 3.22199Z" fill="#2E3A59"/>
<path d="M30.0903 20.146C30.0442 19.7056 29.9709 19.2733 29.8722 18.8508C30.2864 18.7846 30.7124 18.75 31.1477 18.75C35.566 18.75 39.1477 22.3317 39.1477 26.75C39.1477 31.1683 35.566 34.75 31.1477 34.75C30.5954 34.75 30.1477 35.1977 30.1477 35.75C30.1477 36.3023 30.5954 36.75 31.1477 36.75C36.6706 36.75 41.1477 32.2729 41.1477 26.75C41.1477 21.2272 36.6706 16.75 31.1477 16.75C30.4893 16.75 29.8458 16.8136 29.223 16.9351C28.6017 15.5585 27.6923 14.3399 26.5716 13.3562C24.7289 11.7386 22.3151 10.756 19.6719 10.75L19.6477 10.75C13.8487 10.75 9.14771 15.451 9.14771 21.25C9.14771 21.4229 9.15188 21.5948 9.16014 21.7656C5.24525 22.0168 2.14771 25.2717 2.14771 29.25C2.14771 33.3921 5.50557 36.75 9.64771 36.75H10.1477C10.7 36.75 11.1477 36.3023 11.1477 35.75C11.1477 35.1977 10.7 34.75 10.1477 34.75H9.64771C6.61014 34.75 4.14771 32.2876 4.14771 29.25C4.14771 26.3333 6.41918 23.9456 9.28821 23.7615L11.2529 23.6354L11.1578 21.669C11.1511 21.5303 11.1477 21.3906 11.1477 21.25C11.1477 16.5556 14.9533 12.75 19.6477 12.75C20.0049 12.75 20.3571 12.772 20.7028 12.8148C24.6065 13.2982 27.6905 16.4289 28.1011 20.354C28.1586 20.9033 28.6505 21.302 29.1997 21.2446C29.749 21.1871 30.1477 20.6952 30.0903 20.146Z" fill="#2E3A59"/>
<path d="M21.6112 27.5174C21.759 26.9853 21.4475 26.4341 20.9154 26.2862C20.3832 26.1384 19.832 26.45 19.6842 26.9821L17.1842 35.9821C17.1006 36.2832 17.1625 36.6061 17.3516 36.8549C17.5407 37.1037 17.8352 37.2498 18.1477 37.2498H23.8321L21.6842 44.9821C21.5364 45.5143 21.8479 46.0655 22.3801 46.2133C22.9122 46.3611 23.4634 46.0495 23.6112 45.5174L26.1112 36.5174C26.1949 36.2163 26.1329 35.8934 25.9438 35.6446C25.7547 35.3959 25.4602 35.2498 25.1477 35.2498H19.4634L21.6112 27.5174Z" fill="#2E3A59"/>
</svg>
