<svg width="48" height="48" viewBox="0 0 48 48" fill="none" xmlns="http://www.w3.org/2000/svg">
<path fill-rule="evenodd" clip-rule="evenodd" d="M26.3846 18.1452C24.5419 16.5277 22.1281 15.545 19.4849 15.5391C19.4768 15.5391 19.4688 15.5391 19.4607 15.5391C13.6617 15.5391 8.96069 20.2401 8.96069 26.0391C8.96069 26.2119 8.96487 26.3838 8.97313 26.5547C5.05823 26.8059 1.96069 30.0607 1.96069 34.0391C1.96069 38.1812 5.31856 41.5391 9.46069 41.5391H30.9607C36.4835 41.5391 40.9607 37.0619 40.9607 31.5391C40.9607 26.0162 36.4835 21.5391 30.9607 21.5391C30.3023 21.5391 29.6588 21.6027 29.036 21.7241C28.4147 20.3476 27.5052 19.129 26.3846 18.1452ZM29.6852 23.6399C29.7839 24.0624 29.8572 24.4946 29.9033 24.935C29.9607 25.4843 29.562 25.9762 29.0127 26.0336C28.4634 26.0911 27.9716 25.6924 27.9141 25.1431C27.5035 21.2179 24.4195 18.0873 20.5158 17.6039C20.1701 17.5611 19.8179 17.5391 19.4607 17.5391C14.7663 17.5391 10.9607 21.3446 10.9607 26.0391C10.9607 26.1797 10.9641 26.3194 10.9708 26.4581L11.0659 28.4245L9.1012 28.5506C6.23217 28.7346 3.96069 31.1224 3.96069 34.0391C3.96069 37.0766 6.42313 39.5391 9.46069 39.5391H30.9607C35.379 39.5391 38.9607 35.9573 38.9607 31.5391C38.9607 27.1208 35.379 23.5391 30.9607 23.5391C30.5254 23.5391 30.0994 23.5736 29.6852 23.6399Z" fill="#2E3A59"/>
<path d="M36.3094 7.93293L36.6999 6.79197C36.7599 6.61672 36.6151 6.43938 36.4314 6.46308L35.2354 6.61735C31.505 7.09851 28.4562 9.73992 27.3791 13.2451C27.2169 13.7731 27.5133 14.3325 28.0413 14.4947C28.5692 14.657 29.1287 14.3605 29.2909 13.8326C29.9558 11.6685 31.5745 9.92172 33.6546 9.08158C33.8263 9.0122 34.0043 9.1563 33.9893 9.34094C33.9705 9.57121 33.961 9.80398 33.961 10.0388C33.961 14.7333 37.7665 18.5388 42.461 18.5388C42.6961 18.5388 42.9291 18.5293 43.1596 18.5105C43.3442 18.4955 43.4884 18.6733 43.419 18.8451C43.1483 19.5155 42.7834 20.1381 42.3403 20.6965C41.997 21.1291 42.0694 21.7581 42.5021 22.1014C42.9347 22.4447 43.5637 22.3723 43.907 21.9396C44.9528 20.6217 45.6569 19.018 45.883 17.2642L46.0372 16.0682C46.0608 15.8845 45.8835 15.7397 45.7082 15.7997L44.5673 16.1903C43.908 16.4159 43.1999 16.5388 42.461 16.5388C38.8711 16.5388 35.961 13.6287 35.961 10.0388C35.961 9.30008 36.0838 8.59209 36.3094 7.93293Z" fill="#2E3A59"/>
</svg>
