<svg width="48" height="48" viewBox="0 0 48 48" fill="none" xmlns="http://www.w3.org/2000/svg">
<path d="M36.2899 3.43293L36.6804 2.29197C36.7403 2.11672 36.5956 1.93938 36.4118 1.96308L35.2158 2.11735C31.4855 2.59851 28.4366 5.23992 27.3596 8.74513C27.1973 9.27305 27.4938 9.83252 28.0217 9.99474C28.5497 10.157 29.1091 9.86049 29.2713 9.33257C29.9363 7.16854 31.555 5.42172 33.635 4.58158C33.8068 4.5122 33.9847 4.6563 33.9697 4.84094C33.951 5.07121 33.9414 5.30398 33.9414 5.53885C33.9414 10.2333 37.747 14.0388 42.4414 14.0388C42.6766 14.0388 42.9096 14.0293 43.1401 14.0105C43.3247 13.9955 43.4688 14.1733 43.3995 14.3451C43.1288 15.0155 42.7638 15.6381 42.3207 16.1965C41.9775 16.6291 42.0499 17.2581 42.4825 17.6014C42.9152 17.9447 43.5442 17.8723 43.8875 17.4396C44.9332 16.1217 45.6374 14.518 45.8634 12.7642L46.0176 11.5682C46.0413 11.3845 45.864 11.2397 45.6887 11.2997L44.5478 11.6903C43.8885 11.9159 43.1804 12.0388 42.4414 12.0388C38.8516 12.0388 35.9414 9.1287 35.9414 5.53885C35.9414 4.80008 36.0643 4.09209 36.2899 3.43293Z" fill="#2E3A59"/>
<path d="M29.9228 20.435C29.8767 19.9946 29.8034 19.5624 29.7047 19.1399C30.119 19.0736 30.5449 19.0391 30.9802 19.0391C35.3985 19.0391 38.9802 22.6208 38.9802 27.0391C38.9802 31.4573 35.3985 35.0391 30.9802 35.0391C30.4279 35.0391 29.9802 35.4868 29.9802 36.0391C29.9802 36.5913 30.4279 37.0391 30.9802 37.0391C36.5031 37.0391 40.9802 32.5619 40.9802 27.0391C40.9802 21.5162 36.5031 17.0391 30.9802 17.0391C30.3218 17.0391 29.6783 17.1027 29.0555 17.2241C28.4342 15.8476 27.5248 14.629 26.4041 13.6452C24.5614 12.0277 22.1476 11.045 19.5044 11.0391L19.4802 11.0391C13.6812 11.0391 8.98022 15.7401 8.98022 21.5391C8.98022 21.7119 8.9844 21.8838 8.99266 22.0547C5.07777 22.3059 1.98022 25.5607 1.98022 29.5391C1.98022 33.6812 5.33809 37.0391 9.48022 37.0391H9.98022C10.5325 37.0391 10.9802 36.5913 10.9802 36.0391C10.9802 35.4868 10.5325 35.0391 9.98022 35.0391H9.48022C6.44266 35.0391 3.98022 32.5766 3.98022 29.5391C3.98022 26.6224 6.2517 24.2346 9.12073 24.0506L11.0854 23.9245L10.9903 21.9581C10.9836 21.8194 10.9802 21.6797 10.9802 21.5391C10.9802 16.8446 14.7858 13.0391 19.4802 13.0391C19.8375 13.0391 20.1896 13.0611 20.5353 13.1039C24.439 13.5873 27.523 16.7179 27.9336 20.6431C27.9911 21.1924 28.483 21.5911 29.0323 21.5336C29.5816 21.4762 29.9803 20.9843 29.9228 20.435Z" fill="#2E3A59"/>
<path d="M19.4802 34.0391C19.4802 33.4868 19.9279 33.0391 20.4802 33.0391C21.0325 33.0391 21.4802 33.4868 21.4802 34.0391V43.0391C21.4802 43.5913 21.0325 44.0391 20.4802 44.0391C19.9279 44.0391 19.4802 43.5913 19.4802 43.0391V34.0391Z" fill="#2E3A59"/>
<path d="M14.9802 36.0391C14.9802 35.4868 15.4279 35.0391 15.9802 35.0391C16.5325 35.0391 16.9802 35.4868 16.9802 36.0391V45.0391C16.9802 45.5913 16.5325 46.0391 15.9802 46.0391C15.4279 46.0391 14.9802 45.5913 14.9802 45.0391V36.0391Z" fill="#2E3A59"/>
<path d="M24.9802 35.0391C24.4279 35.0391 23.9802 35.4868 23.9802 36.0391V45.0391C23.9802 45.5913 24.4279 46.0391 24.9802 46.0391C25.5325 46.0391 25.9802 45.5913 25.9802 45.0391V36.0391C25.9802 35.4868 25.5325 35.0391 24.9802 35.0391Z" fill="#2E3A59"/>
</svg>
