<svg width="48" height="48" viewBox="0 0 48 48" fill="none" xmlns="http://www.w3.org/2000/svg">
<path d="M36.4759 34C41.7358 34 45.9998 29.5228 45.9998 24C45.9998 18.4772 41.7358 14 36.4759 14C35.8625 14 35.2627 14.0609 34.6816 14.1772C33.1113 10.5514 29.6228 8 25.5234 8C19.9288 8 15.4756 12.7475 15.4756 18.5C15.4756 18.6118 15.494 18.7192 15.5278 18.8196C15.5297 18.8851 15.5321 18.9504 15.5351 19.0156C13.8431 19.1295 12.3113 19.862 11.1428 21H11.1444C10.9817 21.1585 10.8259 21.3249 10.6778 21.4985C10.1401 22.129 10.6591 23.0002 11.4878 23.0002C11.8318 23.0002 12.1512 22.8361 12.3883 22.5869C13.2564 21.6744 14.418 21.0956 15.6709 21.0112L15.6691 21H15.8337L17.6231 20.8795L17.533 18.9236C17.5265 18.7834 17.5233 18.6422 17.5233 18.5C17.5233 13.7125 21.1958 10 25.5234 10C28.7112 10 31.5243 11.9947 32.8053 14.9749L33.15 15.7767C33.3355 16.3575 33.4635 16.9673 33.5265 17.5991C33.5812 18.1487 34.0711 18.5498 34.6207 18.4951C35.1703 18.4403 35.5714 17.9504 35.5166 17.4009C35.4725 16.9575 35.4017 16.5219 35.306 16.0959C35.6863 16.0329 36.0768 16 36.4759 16C40.5404 16 43.9998 19.4887 43.9998 24C43.9998 28.5113 40.5404 32 36.4759 32H14.0002C11.7911 32 10.0002 33.7909 10.0002 36C10.0002 38.2091 11.7911 40 14.0002 40H16.0002C16.5525 40 17.0002 39.5523 17.0002 39C17.0002 38.4477 16.5525 38 16.0002 38H14.0002C12.8957 38 12.0002 37.1046 12.0002 36C12.0002 34.8954 12.8957 34 14.0002 34H36.4759Z" fill="#2E3A59"/>
<path d="M6.00024 21C3.79111 21 2.00024 22.7909 2.00024 25C2.00024 27.2091 3.79111 29 6.00024 29H28.0002C28.5525 29 29.0002 28.5523 29.0002 28C29.0002 27.4477 28.5525 27 28.0002 27H6.00024C4.89567 27 4.00024 26.1046 4.00024 25C4.00024 23.8954 4.89567 23 6.00024 23C6.55253 23 7.00024 22.5523 7.00024 22C7.00024 21.4477 6.55253 21 6.00024 21Z" fill="#2E3A59"/>
</svg>
