<svg width="48" height="48" viewBox="0 0 48 48" fill="none" xmlns="http://www.w3.org/2000/svg">
<path d="M29.3297 9.29372C30.2719 6.22731 33.1273 4 36.5002 4C40.6423 4 44.0002 7.35786 44.0002 11.5C44.0002 13.2612 43.3944 14.8781 42.3791 16.1576C42.0358 16.5903 42.1082 17.2193 42.5409 17.5626C42.9735 17.9059 43.6025 17.8334 43.9458 17.4008C45.2316 15.7803 46.0002 13.7285 46.0002 11.5C46.0002 6.25329 41.7469 2 36.5002 2C32.2244 2 28.6108 4.82402 27.4179 8.70628C27.2557 9.2342 27.5522 9.79367 28.0801 9.95589C28.608 10.1181 29.1675 9.82164 29.3297 9.29372Z" fill="#2E3A59"/>
<path d="M29.9423 20.396C29.8963 19.9556 29.823 19.5233 29.7242 19.1008C30.1385 19.0346 30.5644 19 30.9998 19C35.418 19 38.9998 22.5817 38.9998 27C38.9998 31.4183 35.418 35 30.9998 35C30.4475 35 29.9998 35.4477 29.9998 36C29.9998 36.5523 30.4475 37 30.9998 37C36.5226 37 40.9998 32.5229 40.9998 27C40.9998 21.4772 36.5226 17 30.9998 17C30.3414 17 29.6979 17.0636 29.075 17.1851C28.4537 15.8085 27.5443 14.5899 26.4236 13.6062C24.581 11.9886 22.1672 11.006 19.5239 11L19.4998 11C13.7008 11 8.99976 15.701 8.99976 21.5C8.99976 21.6729 9.00393 21.8448 9.01219 22.0156C5.0973 22.2668 1.99976 25.5217 1.99976 29.5C1.99976 33.6421 5.35762 37 9.49976 37H9.99976C10.552 37 10.9998 36.5523 10.9998 36C10.9998 35.4477 10.552 35 9.99976 35H9.49976C6.46219 35 3.99976 32.5376 3.99976 29.5C3.99976 26.5833 6.27123 24.1956 9.14026 24.0115L11.1049 23.8854L11.0099 21.919C11.0032 21.7803 10.9998 21.6406 10.9998 21.5C10.9998 16.8056 14.8053 13 19.4998 13C19.857 13 20.2091 13.022 20.5549 13.0648C24.4586 13.5482 27.5426 16.6789 27.9532 20.604C28.0106 21.1533 28.5025 21.552 29.0518 21.4946C29.6011 21.4371 29.9998 20.9452 29.9423 20.396Z" fill="#2E3A59"/>
<path d="M19.4998 34C19.4998 33.4477 19.9475 33 20.4998 33C21.052 33 21.4998 33.4477 21.4998 34V43C21.4998 43.5523 21.052 44 20.4998 44C19.9475 44 19.4998 43.5523 19.4998 43V34Z" fill="#2E3A59"/>
<path d="M14.9998 36C14.9998 35.4477 15.4475 35 15.9998 35C16.552 35 16.9998 35.4477 16.9998 36V45C16.9998 45.5523 16.552 46 15.9998 46C15.4475 46 14.9998 45.5523 14.9998 45V36Z" fill="#2E3A59"/>
<path d="M24.9998 35C24.4475 35 23.9998 35.4477 23.9998 36V45C23.9998 45.5523 24.4475 46 24.9998 46C25.552 46 25.9998 45.5523 25.9998 45V36C25.9998 35.4477 25.552 35 24.9998 35Z" fill="#2E3A59"/>
</svg>
