<svg width="48" height="48" viewBox="0 0 48 48" fill="none" xmlns="http://www.w3.org/2000/svg">
<path d="M36.2899 4.45246L36.6804 3.3115C36.7403 3.13625 36.5956 2.95891 36.4118 2.98261L35.2158 3.13688C31.4855 3.61804 28.4366 6.25945 27.3596 9.76466C27.1973 10.2926 27.4938 10.8521 28.0217 11.0143C28.5497 11.1765 29.1091 10.88 29.2713 10.3521C29.9363 8.18807 31.555 6.44125 33.635 5.60111C33.8068 5.53173 33.9847 5.67583 33.9697 5.86047C33.951 6.09074 33.9414 6.32351 33.9414 6.55838C33.9414 11.2528 37.747 15.0584 42.4414 15.0584C42.6766 15.0584 42.9096 15.0488 43.1401 15.03C43.3247 15.015 43.4688 15.1929 43.3995 15.3646C43.1288 16.0351 42.7638 16.6576 42.3207 17.216C41.9775 17.6487 42.0499 18.2777 42.4825 18.621C42.9152 18.9642 43.5442 18.8918 43.8875 18.4592C44.9332 17.1412 45.6374 15.5375 45.8634 13.7837L46.0176 12.5877C46.0413 12.404 45.864 12.2592 45.6887 12.3192L44.5478 12.7098C43.8885 12.9355 43.1804 13.0584 42.4414 13.0584C38.8516 13.0584 35.9414 10.1482 35.9414 6.55838C35.9414 5.81961 36.0643 5.11162 36.2899 4.45246Z" fill="#2E3A59"/>
<path d="M29.9228 21.4155C29.8767 20.9751 29.8034 20.5428 29.7047 20.1204C30.119 20.0541 30.5449 20.0195 30.9802 20.0195C35.3985 20.0195 38.9802 23.6013 38.9802 28.0195C38.9802 32.4378 35.3985 36.0195 30.9802 36.0195C30.4279 36.0195 29.9802 36.4672 29.9802 37.0195C29.9802 37.5718 30.4279 38.0195 30.9802 38.0195C36.5031 38.0195 40.9802 33.5424 40.9802 28.0195C40.9802 22.4967 36.5031 18.0195 30.9802 18.0195C30.3218 18.0195 29.6783 18.0832 29.0555 18.2046C28.4342 16.828 27.5248 15.6094 26.4041 14.6257C24.5614 13.0081 22.1476 12.0255 19.5044 12.0196L19.4802 12.0195C13.6812 12.0195 8.98022 16.7205 8.98022 22.5195C8.98022 22.6924 8.9844 22.8643 8.99266 23.0351C5.07777 23.2863 1.98022 26.5412 1.98022 30.5195C1.98022 34.6617 5.33809 38.0195 9.48022 38.0195H9.98022C10.5325 38.0195 10.9802 37.5718 10.9802 37.0195C10.9802 36.4672 10.5325 36.0195 9.98022 36.0195H9.48022C6.44266 36.0195 3.98022 33.5571 3.98022 30.5195C3.98022 27.6029 6.2517 25.2151 9.12073 25.031L11.0854 24.905L10.9903 22.9385C10.9836 22.7999 10.9802 22.6602 10.9802 22.5195C10.9802 17.8251 14.7858 14.0195 19.4802 14.0195C19.8375 14.0195 20.1896 14.0416 20.5353 14.0844C24.439 14.5678 27.523 17.6984 27.9336 21.6236C27.9911 22.1729 28.483 22.5716 29.0323 22.5141C29.5816 22.4566 29.9803 21.9648 29.9228 21.4155Z" fill="#2E3A59"/>
<path d="M19.9802 31.0195C19.7041 31.0195 19.4802 31.2434 19.4802 31.5195V32.5195C19.4802 32.7957 19.7041 33.0195 19.9802 33.0195H20.9802C21.2564 33.0195 21.4802 32.7957 21.4802 32.5195V31.5195C21.4802 31.2434 21.2564 31.0195 20.9802 31.0195H19.9802Z" fill="#2E3A59"/>
<path d="M14.9802 34.5195C14.9802 34.2434 15.2041 34.0195 15.4802 34.0195H16.4802C16.7564 34.0195 16.9802 34.2434 16.9802 34.5195V35.5195C16.9802 35.7957 16.7564 36.0195 16.4802 36.0195H15.4802C15.2041 36.0195 14.9802 35.7957 14.9802 35.5195V34.5195Z" fill="#2E3A59"/>
<path d="M14.9802 39.0195C14.9802 38.7434 15.2041 38.5195 15.4802 38.5195H16.4802C16.7564 38.5195 16.9802 38.7434 16.9802 39.0195V40.0195C16.9802 40.2957 16.7564 40.5195 16.4802 40.5195H15.4802C15.2041 40.5195 14.9802 40.2957 14.9802 40.0195V39.0195Z" fill="#2E3A59"/>
<path d="M15.4802 43.0195C15.2041 43.0195 14.9802 43.2434 14.9802 43.5195V44.5195C14.9802 44.7957 15.2041 45.0195 15.4802 45.0195H16.4802C16.7564 45.0195 16.9802 44.7957 16.9802 44.5195V43.5195C16.9802 43.2434 16.7564 43.0195 16.4802 43.0195H15.4802Z" fill="#2E3A59"/>
<path d="M23.9802 34.5195C23.9802 34.2434 24.2041 34.0195 24.4802 34.0195H25.4802C25.7564 34.0195 25.9802 34.2434 25.9802 34.5195V35.5195C25.9802 35.7957 25.7564 36.0195 25.4802 36.0195H24.4802C24.2041 36.0195 23.9802 35.7957 23.9802 35.5195V34.5195Z" fill="#2E3A59"/>
<path d="M24.4802 38.5195C24.2041 38.5195 23.9802 38.7434 23.9802 39.0195V40.0195C23.9802 40.2957 24.2041 40.5195 24.4802 40.5195H25.4802C25.7564 40.5195 25.9802 40.2957 25.9802 40.0195V39.0195C25.9802 38.7434 25.7564 38.5195 25.4802 38.5195H24.4802Z" fill="#2E3A59"/>
<path d="M23.9802 43.5195C23.9802 43.2434 24.2041 43.0195 24.4802 43.0195H25.4802C25.7564 43.0195 25.9802 43.2434 25.9802 43.5195V44.5195C25.9802 44.7957 25.7564 45.0195 25.4802 45.0195H24.4802C24.2041 45.0195 23.9802 44.7957 23.9802 44.5195V43.5195Z" fill="#2E3A59"/>
<path d="M19.4802 36.0195C19.4802 35.7434 19.7041 35.5195 19.9802 35.5195H20.9802C21.2564 35.5195 21.4802 35.7434 21.4802 36.0195V37.0195C21.4802 37.2957 21.2564 37.5195 20.9802 37.5195H19.9802C19.7041 37.5195 19.4802 37.2957 19.4802 37.0195V36.0195Z" fill="#2E3A59"/>
<path d="M19.9802 40.0195C19.7041 40.0195 19.4802 40.2434 19.4802 40.5195V41.5195C19.4802 41.7957 19.7041 42.0195 19.9802 42.0195H20.9802C21.2564 42.0195 21.4802 41.7957 21.4802 41.5195V40.5195C21.4802 40.2434 21.2564 40.0195 20.9802 40.0195H19.9802Z" fill="#2E3A59"/>
</svg>
