<svg width="48" height="48" viewBox="0 0 48 48" fill="none" xmlns="http://www.w3.org/2000/svg">
<path d="M36.1224 4.47199L36.5129 3.33103C36.5729 3.15578 36.4281 2.97844 36.2444 3.00214L35.0483 3.15641C31.318 3.63757 28.2691 6.27898 27.1921 9.78419C27.0299 10.3121 27.3263 10.8716 27.8542 11.0338C28.3822 11.196 28.9416 10.8996 29.1039 10.3716C29.7688 8.2076 31.3875 6.46078 33.4675 5.62064C33.6393 5.55126 33.8173 5.69536 33.8022 5.88C33.7835 6.11027 33.7739 6.34304 33.7739 6.57791C33.7739 11.2723 37.5795 15.0779 42.2739 15.0779C42.5091 15.0779 42.7421 15.0683 42.9726 15.0496C43.1572 15.0345 43.3014 15.2124 43.232 15.3842C42.9613 16.0546 42.5964 16.6771 42.1533 17.2356C41.81 17.6682 41.8824 18.2972 42.3151 18.6405C42.7477 18.9838 43.3767 18.9113 43.72 18.4787C44.7657 17.1607 45.4699 15.557 45.696 13.8033L45.8501 12.6072C45.8738 12.4235 45.6965 12.2788 45.5212 12.3388L44.3803 12.7293C43.721 12.955 43.0129 13.0779 42.2739 13.0779C38.6841 13.0779 35.7739 10.1678 35.7739 6.57791C35.7739 5.83914 35.8968 5.13115 36.1224 4.47199Z" fill="#2E3A59"/>
<path d="M30.0903 21.396C30.0442 20.9556 29.9709 20.5233 29.8722 20.1008C30.2864 20.0346 30.7124 20 31.1477 20C35.566 20 39.1477 23.5817 39.1477 28C39.1477 32.4183 35.566 36 31.1477 36C30.5954 36 30.1477 36.4477 30.1477 37C30.1477 37.5523 30.5954 38 31.1477 38C36.6706 38 41.1477 33.5229 41.1477 28C41.1477 22.4772 36.6706 18 31.1477 18C30.4893 18 29.8458 18.0636 29.223 18.1851C28.6017 16.8085 27.6923 15.5899 26.5716 14.6062C24.7289 12.9886 22.3151 12.006 19.6719 12L19.6477 12C13.8487 12 9.14771 16.701 9.14771 22.5C9.14771 22.6729 9.15188 22.8448 9.16014 23.0156C5.24525 23.2668 2.14771 26.5217 2.14771 30.5C2.14771 34.6421 5.50557 38 9.64771 38H10.1477C10.7 38 11.1477 37.5523 11.1477 37C11.1477 36.4477 10.7 36 10.1477 36H9.64771C6.61014 36 4.14771 33.5376 4.14771 30.5C4.14771 27.5833 6.41918 25.1956 9.28821 25.0115L11.2529 24.8854L11.1578 22.919C11.1511 22.7803 11.1477 22.6406 11.1477 22.5C11.1477 17.8056 14.9533 14 19.6477 14C20.0049 14 20.3571 14.022 20.7028 14.0648C24.6065 14.5482 27.6905 17.6789 28.1011 21.604C28.1586 22.1533 28.6505 22.552 29.1997 22.4946C29.749 22.4371 30.1477 21.9452 30.0903 21.396Z" fill="#2E3A59"/>
<path d="M24.6477 34.5C24.3716 34.5 24.1477 34.7239 24.1477 35V36.5H22.6477C22.3716 36.5 22.1477 36.7239 22.1477 37V38C22.1477 38.2761 22.3716 38.5 22.6477 38.5H24.1477V40C24.1477 40.2761 24.3716 40.5 24.6477 40.5H25.6477C25.9238 40.5 26.1477 40.2761 26.1477 40V38.5H27.6477C27.9238 38.5 28.1477 38.2761 28.1477 38V37C28.1477 36.7239 27.9238 36.5 27.6477 36.5H26.1477V35C26.1477 34.7239 25.9238 34.5 25.6477 34.5H24.6477Z" fill="#2E3A59"/>
<path d="M17.6477 39C17.3716 39 17.1477 39.2239 17.1477 39.5V41H15.6477C15.3716 41 15.1477 41.2239 15.1477 41.5V42.5C15.1477 42.7761 15.3716 43 15.6477 43H17.1477V44.5C17.1477 44.7761 17.3716 45 17.6477 45H18.6477C18.9238 45 19.1477 44.7761 19.1477 44.5V43H20.6477C20.9238 43 21.1477 42.7761 21.1477 42.5V41.5C21.1477 41.2239 20.9238 41 20.6477 41H19.1477V39.5C19.1477 39.2239 18.9238 39 18.6477 39H17.6477Z" fill="#2E3A59"/>
<path d="M15.6477 30C15.3716 30 15.1477 30.2239 15.1477 30.5V32H13.6477C13.3716 32 13.1477 32.2239 13.1477 32.5V33.5C13.1477 33.7761 13.3716 34 13.6477 34H15.1477V35.5C15.1477 35.7761 15.3716 36 15.6477 36H16.6477C16.9238 36 17.1477 35.7761 17.1477 35.5V34H18.6477C18.9238 34 19.1477 33.7761 19.1477 33.5V32.5C19.1477 32.2239 18.9238 32 18.6477 32H17.1477V30.5C17.1477 30.2239 16.9238 30 16.6477 30H15.6477Z" fill="#2E3A59"/>
</svg>
