<svg width="48" height="48" viewBox="0 0 48 48" fill="none" xmlns="http://www.w3.org/2000/svg">
<path d="M29.3297 9.04372C30.2719 5.97731 33.1273 3.75 36.5002 3.75C40.6423 3.75 44.0002 7.10786 44.0002 11.25C44.0002 13.0112 43.3944 14.6281 42.3791 15.9076C42.0358 16.3403 42.1082 16.9693 42.5409 17.3126C42.9735 17.6559 43.6025 17.5834 43.9458 17.1508C45.2316 15.5303 46.0002 13.4785 46.0002 11.25C46.0002 6.00329 41.7469 1.75 36.5002 1.75C32.2244 1.75 28.6108 4.57402 27.4179 8.45628C27.2557 8.9842 27.5522 9.54367 28.0801 9.70589C28.608 9.86811 29.1675 9.57164 29.3297 9.04372Z" fill="#2E3A59"/>
<path d="M29.9423 20.146C29.8963 19.7056 29.823 19.2733 29.7242 18.8508C30.1385 18.7846 30.5644 18.75 30.9998 18.75C35.418 18.75 38.9998 22.3317 38.9998 26.75C38.9998 31.1683 35.418 34.75 30.9998 34.75C30.4475 34.75 29.9998 35.1977 29.9998 35.75C29.9998 36.3023 30.4475 36.75 30.9998 36.75C36.5226 36.75 40.9998 32.2729 40.9998 26.75C40.9998 21.2272 36.5226 16.75 30.9998 16.75C30.3414 16.75 29.6979 16.8136 29.075 16.9351C28.4537 15.5585 27.5443 14.3399 26.4236 13.3562C24.581 11.7386 22.1672 10.756 19.5239 10.75L19.4998 10.75C13.7008 10.75 8.99976 15.451 8.99976 21.25C8.99976 21.4229 9.00393 21.5948 9.01219 21.7656C5.0973 22.0168 1.99976 25.2717 1.99976 29.25C1.99976 33.3921 5.35762 36.75 9.49976 36.75H9.99976C10.552 36.75 10.9998 36.3023 10.9998 35.75C10.9998 35.1977 10.552 34.75 9.99976 34.75H9.49976C6.46219 34.75 3.99976 32.2876 3.99976 29.25C3.99976 26.3333 6.27123 23.9456 9.14026 23.7615L11.1049 23.6354L11.0099 21.669C11.0032 21.5303 10.9998 21.3906 10.9998 21.25C10.9998 16.5556 14.8053 12.75 19.4998 12.75C19.857 12.75 20.2091 12.772 20.5549 12.8148C24.4586 13.2982 27.5426 16.4289 27.9532 20.354C28.0106 20.9033 28.5025 21.302 29.0518 21.2446C29.6011 21.1871 29.9998 20.6952 29.9423 20.146Z" fill="#2E3A59"/>
<path d="M21.4633 27.5174C21.6111 26.9853 21.2995 26.4341 20.7674 26.2862C20.2353 26.1384 19.6841 26.45 19.5362 26.9821L17.0362 35.9821C16.9526 36.2832 17.0145 36.6061 17.2036 36.8549C17.3927 37.1037 17.6873 37.2498 17.9998 37.2498H23.6841L21.5362 44.9821C21.3884 45.5143 21.7 46.0655 22.2321 46.2133C22.7643 46.3611 23.3155 46.0495 23.4633 45.5174L25.9633 36.5174C26.0469 36.2163 25.985 35.8934 25.7959 35.6446C25.6068 35.3959 25.3123 35.2498 24.9998 35.2498H19.3154L21.4633 27.5174Z" fill="#2E3A59"/>
</svg>
